<?xml version="1.0" encoding="utf-8"?>
<svg id="bfe1f3b2-f385-4c1e-ad99-3024a88725e0" data-name="Laag 1" xmlns="http://www.w3.org/2000/svg" viewBox="0 0 185.9 200.95"><defs><style>.a9e23719-23b9-4e3e-ba91-b72a57d7239f{fill:#e11217;}.a6912256-4e35-4421-8f32-7e7c737f976b{fill:#ee7d07;}.fcbb58e0-6db9-4a92-8192-61fe724f8c18{fill:#5c3087;}.e21893e1-7bb3-43f2-8033-09da35eb189b{fill:#fff;}</style></defs><rect class="a9e23719-23b9-4e3e-ba91-b72a57d7239f" x="162.3" width="11.8" height="162.3"/><rect class="a6912256-4e35-4421-8f32-7e7c737f976b" x="174.12" width="11.78" height="162.3"/><rect class="fcbb58e0-6db9-4a92-8192-61fe724f8c18" width="162.3" height="162.3"/><path class="e21893e1-7bb3-43f2-8033-09da35eb189b" d="M141.36,68.93l16.53-9.69A21.55,21.55,0,0,0,147.26,48.8Z"/><path class="e21893e1-7bb3-43f2-8033-09da35eb189b" d="M120.82,116l1.22.37L126,103.48h-1.33Z"/><path class="e21893e1-7bb3-43f2-8033-09da35eb189b" d="M147.31,33.68l-1.22-.38-12.6,41.24c.33.36.66.71,1,1Z"/><path class="e21893e1-7bb3-43f2-8033-09da35eb189b" d="M130.7,95.4,136.2,77a17.3,17.3,0,0,1-1.7-1.4l-6.07,19.87Z"/><polygon class="e21893e1-7bb3-43f2-8033-09da35eb189b" points="130.7 95.4 130.03 97.66 146.96 97.32 146.92 95.08 130.7 95.4"/><path class="e21893e1-7bb3-43f2-8033-09da35eb189b" d="M126,103.48h.15l2.19-.07L130,97.65l-2.29,0Z"/><path class="e21893e1-7bb3-43f2-8033-09da35eb189b" d="M117.38,97.91l0-2.24,9.76-.2,6.4-20.93a17.13,17.13,0,0,1-1.28-21.33L86.93,94.9a85.36,85.36,0,0,0,37.71,8.59l1.76-5.76Z"/><polygon class="e21893e1-7bb3-43f2-8033-09da35eb189b" points="29.1 115.25 29.1 104.52 20.42 104.52 20.42 115.25 15.42 115.25 15.42 89.62 20.42 89.62 20.42 100.1 29.1 100.1 29.1 89.62 34.11 89.62 34.11 115.25 29.1 115.25"/><polygon class="e21893e1-7bb3-43f2-8033-09da35eb189b" points="38.59 115.25 38.59 89.62 55.48 89.62 55.48 94.08 43.6 94.08 43.6 100.1 53.72 100.1 53.72 104.56 43.6 104.56 43.6 110.79 55.48 110.79 55.48 115.25 38.59 115.25"/><polygon class="e21893e1-7bb3-43f2-8033-09da35eb189b" points="69.42 94.08 69.42 115.25 64.42 115.25 64.42 94.08 58.83 94.08 58.83 89.62 76.12 89.62 76.12 94.08 69.42 94.08"/><path class="e21893e1-7bb3-43f2-8033-09da35eb189b" d="M24,147.13c-3.89,0-6.84-.83-9.36-3.38l3.24-3.25A8.36,8.36,0,0,0,24,142.67c3,0,4.54-1.12,4.54-3.17a2.85,2.85,0,0,0-.79-2.16,3.8,3.8,0,0,0-2.27-.9L22.42,136a8.69,8.69,0,0,1-5-2.12,6.78,6.78,0,0,1-1.83-5c0-4.57,3.39-7.78,8.93-7.78,3.53,0,6.09.87,8.28,3l-3.17,3.13a7.16,7.16,0,0,0-5.26-1.76c-2.66,0-4,1.48-4,3.24a2.49,2.49,0,0,0,.76,1.84,4.49,4.49,0,0,0,2.38,1l3,.43a8.45,8.45,0,0,1,4.9,2,7.16,7.16,0,0,1,2,5.43c0,5-4.14,7.78-9.51,7.78"/><polygon class="e21893e1-7bb3-43f2-8033-09da35eb189b" points="47.42 125.74 47.42 146.91 42.41 146.91 42.41 125.74 35.71 125.74 35.71 121.28 54.11 121.28 54.11 125.74 47.42 125.74"/><path class="e21893e1-7bb3-43f2-8033-09da35eb189b" d="M67.9,125.74H63.18v6.77H67.9a3.39,3.39,0,1,0,0-6.77m3.89,21.17-5-10.22h-3.6v10.22h-5V121.28h10c5.22,0,8.32,3.56,8.32,7.85a6.9,6.9,0,0,1-4.68,6.73l5.72,11Z"/><polygon class="e21893e1-7bb3-43f2-8033-09da35eb189b" points="81.72 146.91 81.72 121.28 98.61 121.28 98.61 125.74 86.72 125.74 86.72 131.76 96.84 131.76 96.84 136.22 86.72 136.22 86.72 142.45 98.61 142.45 98.61 146.91 81.72 146.91"/><polygon class="e21893e1-7bb3-43f2-8033-09da35eb189b" points="103.5 146.91 103.5 121.28 120.39 121.28 120.39 125.74 108.5 125.74 108.5 131.76 118.62 131.76 118.62 136.22 108.5 136.22 108.5 142.45 120.39 142.45 120.39 146.91 103.5 146.91"/><polygon class="e21893e1-7bb3-43f2-8033-09da35eb189b" points="140.19 146.91 133.59 135.25 130.28 139.21 130.28 146.91 125.28 146.91 125.28 121.28 130.28 121.28 130.28 132.44 139.32 121.28 145.41 121.28 136.91 131.47 146.01 146.91 140.19 146.91"/><path class="fcbb58e0-6db9-4a92-8192-61fe724f8c18" d="M2.89,183C1.43,183,0,182.15,0,179.72s1.43-3.3,2.89-3.3a2.66,2.66,0,0,1,2.13.9l-.9.87a1.47,1.47,0,0,0-1.23-.61,1.44,1.44,0,0,0-1.2.57,3.38,3.38,0,0,0,0,3.15,1.44,1.44,0,0,0,1.2.57,1.47,1.47,0,0,0,1.23-.61l.9.86a2.68,2.68,0,0,1-2.13.92"/><path class="fcbb58e0-6db9-4a92-8192-61fe724f8c18" d="M10.31,183v-4A1.25,1.25,0,0,0,9,177.58,1.26,1.26,0,0,0,7.69,179v4H6.39v-9.09h1.3v3.27a2.23,2.23,0,0,1,1.67-.72,2.14,2.14,0,0,1,2.24,2.37V183Z"/><path class="fcbb58e0-6db9-4a92-8192-61fe724f8c18" d="M17,178a1.19,1.19,0,0,0-1-.43A1.33,1.33,0,0,0,14.78,179V183H13.47v-6.47h1.28v.7a2.14,2.14,0,0,1,1.72-.77A2,2,0,0,1,18,177Z"/><path class="fcbb58e0-6db9-4a92-8192-61fe724f8c18" d="M18.94,176.49h1.31V183H18.94Zm0-2.65h1.38v1.38H18.9Z"/><path class="fcbb58e0-6db9-4a92-8192-61fe724f8c18" d="M24.27,183a3.58,3.58,0,0,1-2.72-.93l.86-.86a2.49,2.49,0,0,0,1.86.68c.79,0,1.42-.29,1.42-.9,0-.43-.24-.71-.87-.76l-1-.09c-1.21-.1-1.92-.65-1.92-1.79s1.09-2,2.44-2a3.56,3.56,0,0,1,2.4.72l-.82.83a2.44,2.44,0,0,0-1.59-.47c-.78,0-1.18.34-1.18.83s.21.67.89.74l1,.09c1.21.1,1.92.67,1.92,1.82,0,1.36-1.14,2.06-2.69,2.06"/><path class="fcbb58e0-6db9-4a92-8192-61fe724f8c18" d="M30.21,183a1.68,1.68,0,0,1-1.77-1.8V177.6H27.7v-1h.74v-2h1.3v2H31v1H29.74v3.5a.66.66,0,0,0,.71.75H31V183Z"/><path class="fcbb58e0-6db9-4a92-8192-61fe724f8c18" d="M36.14,178.32a1.33,1.33,0,0,0-1.27-.82,1.36,1.36,0,0,0-1.3.82,2.08,2.08,0,0,0-.16.87h2.91a2.07,2.07,0,0,0-.18-.87m-2.73,1.78a1.59,1.59,0,0,0,1.65,1.81,1.92,1.92,0,0,0,1.56-.66l.83.78A3,3,0,0,1,35,183c-1.62,0-2.91-.86-2.91-3.32,0-2.09,1.08-3.3,2.75-3.3s2.74,1.27,2.74,3.11v.57Z"/><path class="fcbb58e0-6db9-4a92-8192-61fe724f8c18" d="M40.93,183a1.65,1.65,0,0,1-1.78-1.79v-7.3h1.31v7.23c0,.49.18.75.69.75h.58V183Z"/><path class="fcbb58e0-6db9-4a92-8192-61fe724f8c18" d="M43,176.49h1.3V183H43Zm0-2.65h1.38v1.38H43Z"/><path class="fcbb58e0-6db9-4a92-8192-61fe724f8c18" d="M46.23,173.84H47.6v1.38H46.23ZM45.8,185.6H45v-1.11h.58c.51,0,.7-.26.7-.75v-7.25h1.3v7.32a1.65,1.65,0,0,1-1.77,1.79"/><polygon class="fcbb58e0-6db9-4a92-8192-61fe724f8c18" points="53.57 182.96 51.76 179.97 50.81 181.06 50.81 182.96 49.5 182.96 49.5 173.88 50.81 173.88 50.81 179.47 53.31 176.49 54.9 176.49 52.65 179.03 55.18 182.96 53.57 182.96"/><path class="fcbb58e0-6db9-4a92-8192-61fe724f8c18" d="M59.88,178.32a1.41,1.41,0,0,0-2.56,0,1.93,1.93,0,0,0-.17.87h2.91a1.93,1.93,0,0,0-.18-.87m-2.73,1.78a1.59,1.59,0,0,0,1.65,1.81,2,2,0,0,0,1.57-.66l.83.78a3.08,3.08,0,0,1-2.43,1c-1.62,0-2.91-.86-2.91-3.32,0-2.09,1.08-3.3,2.74-3.3s2.75,1.27,2.75,3.11v.57Z"/><path class="fcbb58e0-6db9-4a92-8192-61fe724f8c18" d="M68,183a3.58,3.58,0,0,1-2.72-.93l.86-.86a2.47,2.47,0,0,0,1.86.68c.79,0,1.41-.29,1.41-.9,0-.43-.24-.71-.86-.76l-1-.09c-1.21-.1-1.91-.65-1.91-1.79s1.08-2,2.44-2a3.52,3.52,0,0,1,2.39.72l-.81.83a2.47,2.47,0,0,0-1.6-.47c-.77,0-1.17.34-1.17.83s.21.67.89.74l1,.09c1.22.1,1.93.67,1.93,1.82,0,1.36-1.15,2.06-2.69,2.06"/><path class="fcbb58e0-6db9-4a92-8192-61fe724f8c18" d="M74.65,183c-1.45,0-2.89-.89-2.89-3.32s1.44-3.3,2.89-3.3a2.64,2.64,0,0,1,2.13.9l-.89.87a1.5,1.5,0,0,0-1.24-.61,1.45,1.45,0,0,0-1.2.57,3.38,3.38,0,0,0,0,3.15,1.45,1.45,0,0,0,1.2.57,1.5,1.5,0,0,0,1.24-.61l.89.86a2.65,2.65,0,0,1-2.13.92"/><path class="fcbb58e0-6db9-4a92-8192-61fe724f8c18" d="M82.07,183v-4a1.24,1.24,0,0,0-1.3-1.42A1.26,1.26,0,0,0,79.45,179v4h-1.3v-9.09h1.3v3.27a2.25,2.25,0,0,1,1.68-.72,2.14,2.14,0,0,1,2.24,2.37V183Z"/><path class="fcbb58e0-6db9-4a92-8192-61fe724f8c18" d="M88.58,178a1.27,1.27,0,0,0-1-.37,1.24,1.24,0,0,0-.94.37,3.64,3.64,0,0,0,0,3.54,1.28,1.28,0,0,0,.94.38,1.32,1.32,0,0,0,1-.38,3.71,3.71,0,0,0,0-3.54m1,4.32a2.6,2.6,0,0,1-1.94.77,2.56,2.56,0,0,1-1.93-.77,4.59,4.59,0,0,1,0-5.09,2.55,2.55,0,0,1,1.93-.76,2.59,2.59,0,0,1,1.94.76,4.64,4.64,0,0,1,0,5.09"/><path class="fcbb58e0-6db9-4a92-8192-61fe724f8c18" d="M93.69,183a1.65,1.65,0,0,1-1.77-1.79v-7.3h1.3v7.23c0,.49.18.75.7.75h.58V183Z"/><path class="fcbb58e0-6db9-4a92-8192-61fe724f8c18" d="M99.16,178.32a1.32,1.32,0,0,0-1.28-.82,1.36,1.36,0,0,0-1.29.82,2.08,2.08,0,0,0-.16.87h2.9a1.93,1.93,0,0,0-.17-.87m-2.73,1.78a1.59,1.59,0,0,0,1.64,1.81,1.91,1.91,0,0,0,1.57-.66l.83.78a3,3,0,0,1-2.42,1c-1.62,0-2.91-.86-2.91-3.32,0-2.09,1.09-3.3,2.74-3.3s2.75,1.27,2.75,3.11v.57Z"/><path class="fcbb58e0-6db9-4a92-8192-61fe724f8c18" d="M106.16,183V179a1.26,1.26,0,0,0-1.3-1.44,1.29,1.29,0,0,0-1.35,1.44V183h-1.3v-6.47h1.28v.65a2.34,2.34,0,0,1,1.72-.72,2.24,2.24,0,0,1,1.6.58,2.37,2.37,0,0,1,.65,1.82V183Z"/><path class="fcbb58e0-6db9-4a92-8192-61fe724f8c18" d="M111.65,177.58c-1.17,0-1.33,1-1.33,2s.16,2,1.33,2,1.31-1,1.31-2-.14-2-1.31-2m-.15,8.07a3,3,0,0,1-2.29-.85L110,184a1.84,1.84,0,0,0,1.41.57A1.46,1.46,0,0,0,113,182.9v-.84a2,2,0,0,1-1.67.74,2.12,2.12,0,0,1-1.54-.57,5.08,5.08,0,0,1,0-5.25,2.17,2.17,0,0,1,1.55-.57,2,2,0,0,1,1.7.77v-.69h1.27v6.43a2.6,2.6,0,0,1-2.77,2.73"/><path class="fcbb58e0-6db9-4a92-8192-61fe724f8c18" d="M119.88,178.32a1.32,1.32,0,0,0-1.27-.82,1.34,1.34,0,0,0-1.29.82,1.93,1.93,0,0,0-.16.87h2.9a1.93,1.93,0,0,0-.18-.87m-2.72,1.78a1.59,1.59,0,0,0,1.64,1.81,1.93,1.93,0,0,0,1.57-.66l.83.78a3.06,3.06,0,0,1-2.42,1c-1.62,0-2.92-.86-2.92-3.32,0-2.09,1.09-3.3,2.75-3.3s2.74,1.27,2.74,3.11v.57Z"/><path class="fcbb58e0-6db9-4a92-8192-61fe724f8c18" d="M130.83,183V179a1.26,1.26,0,0,0-1.31-1.44,1.28,1.28,0,0,0-1.34,1.37v4h-1.3V179c0-1-.57-1.44-1.3-1.44a1.28,1.28,0,0,0-1.34,1.44V183h-1.3v-6.47h1.27v.65a2.36,2.36,0,0,1,1.72-.72,2,2,0,0,1,1.84.94,2.47,2.47,0,0,1,2-.94,2.35,2.35,0,0,1,1.63.58,2.44,2.44,0,0,1,.69,1.82V183Z"/><path class="fcbb58e0-6db9-4a92-8192-61fe724f8c18" d="M137.67,178.32a1.31,1.31,0,0,0-1.27-.82,1.33,1.33,0,0,0-1.28.82,1.93,1.93,0,0,0-.17.87h2.91a1.93,1.93,0,0,0-.19-.87M135,180.1a1.59,1.59,0,0,0,1.65,1.81,1.92,1.92,0,0,0,1.56-.66l.83.78a3,3,0,0,1-2.42,1c-1.62,0-2.92-.86-2.92-3.32,0-2.09,1.09-3.3,2.75-3.3s2.74,1.27,2.74,3.11v.57Z"/><path class="fcbb58e0-6db9-4a92-8192-61fe724f8c18" d="M144.42,178.32a1.41,1.41,0,0,0-2.56,0,1.93,1.93,0,0,0-.17.87h2.91a2.07,2.07,0,0,0-.18-.87m-2.73,1.78a1.59,1.59,0,0,0,1.64,1.81,2,2,0,0,0,1.58-.66l.82.78a3,3,0,0,1-2.42,1c-1.62,0-2.91-.86-2.91-3.32,0-2.09,1.08-3.3,2.74-3.3s2.75,1.27,2.75,3.11v.57Z"/><path class="fcbb58e0-6db9-4a92-8192-61fe724f8c18" d="M151.42,183V179a1.26,1.26,0,0,0-1.31-1.44,1.28,1.28,0,0,0-1.33,1.44V183h-1.31v-6.47h1.28v.65a2.33,2.33,0,0,1,1.73-.72,2.23,2.23,0,0,1,1.59.58,2.41,2.41,0,0,1,.65,1.82V183Z"/><path class="fcbb58e0-6db9-4a92-8192-61fe724f8c18" d="M156.68,183a3.59,3.59,0,0,1-2.72-.93l.86-.86a2.49,2.49,0,0,0,1.86.68c.79,0,1.42-.29,1.42-.9,0-.43-.25-.71-.87-.76l-1-.09c-1.21-.1-1.91-.65-1.91-1.79s1.09-2,2.43-2a3.57,3.57,0,0,1,2.41.72l-.82.83a2.49,2.49,0,0,0-1.6-.47c-.77,0-1.17.34-1.17.83s.21.67.9.74l1,.09c1.21.1,1.93.67,1.93,1.82,0,1.36-1.15,2.06-2.69,2.06"/><path class="fcbb58e0-6db9-4a92-8192-61fe724f8c18" d="M163.37,183c-1.46,0-2.87-.89-2.87-3.32s1.41-3.3,2.87-3.3a2.64,2.64,0,0,1,2.13.9l-.89.87a1.5,1.5,0,0,0-1.24-.61,1.45,1.45,0,0,0-1.2.57,3.45,3.45,0,0,0,0,3.15,1.45,1.45,0,0,0,1.2.57,1.5,1.5,0,0,0,1.24-.61l.89.86a2.65,2.65,0,0,1-2.13.92"/><path class="fcbb58e0-6db9-4a92-8192-61fe724f8c18" d="M170.79,183v-4a1.31,1.31,0,1,0-2.61,0v4h-1.31v-9.09h1.31v3.27a2.21,2.21,0,0,1,1.66-.72,2.14,2.14,0,0,1,2.25,2.37V183Z"/><path class="fcbb58e0-6db9-4a92-8192-61fe724f8c18" d="M177.42,180.1H175.9c-.77,0-1.16.35-1.16.93s.37.92,1.18.92a1.61,1.61,0,0,0,1.22-.36,1.34,1.34,0,0,0,.28-1Zm0,2.86v-.59a2.1,2.1,0,0,1-1.72.67,2.29,2.29,0,0,1-1.74-.59,2,2,0,0,1-.5-1.39c0-1.09.74-1.87,2.23-1.87h1.71v-.45c0-.82-.41-1.21-1.42-1.21a1.52,1.52,0,0,0-1.42.62l-.85-.8a2.63,2.63,0,0,1,2.32-.93c1.78,0,2.67.75,2.67,2.21V183Z"/><path class="fcbb58e0-6db9-4a92-8192-61fe724f8c18" d="M183.24,177.58c-1.18,0-1.35,1-1.35,2.14s.17,2.15,1.35,2.15,1.34-1,1.34-2.15-.17-2.14-1.34-2.14m1.91,4.88a2.16,2.16,0,0,1-1.56.58,2,2,0,0,1-1.7-.74v3.27h-1.3v-9.08h1.27v.69a2,2,0,0,1,1.71-.77,2.21,2.21,0,0,1,1.58.58,5.49,5.49,0,0,1,0,5.47"/><polygon class="fcbb58e0-6db9-4a92-8192-61fe724f8c18" points="3.79 198.25 2.73 198.25 0.35 191.79 1.73 191.79 3.26 196.34 4.78 191.79 6.16 191.79 3.79 198.25"/><path class="fcbb58e0-6db9-4a92-8192-61fe724f8c18" d="M10.37,193.24a1.4,1.4,0,0,0-1.9,0A2.51,2.51,0,0,0,8,195a2.54,2.54,0,0,0,.44,1.78,1.38,1.38,0,0,0,1.9,0,2.49,2.49,0,0,0,.45-1.78,2.47,2.47,0,0,0-.45-1.77m1,4.32a2.6,2.6,0,0,1-1.94.77,2.57,2.57,0,0,1-1.93-.77,4.64,4.64,0,0,1,0-5.09,2.61,2.61,0,0,1,1.93-.76,2.63,2.63,0,0,1,1.94.76,4.64,4.64,0,0,1,0,5.09"/><path class="fcbb58e0-6db9-4a92-8192-61fe724f8c18" d="M17.09,193.24a1.31,1.31,0,0,0-.95-.37,1.3,1.3,0,0,0-1,.37,2.51,2.51,0,0,0-.44,1.77,2.54,2.54,0,0,0,.44,1.78,1.3,1.3,0,0,0,1,.38,1.32,1.32,0,0,0,.95-.38,2.49,2.49,0,0,0,.45-1.78,2.47,2.47,0,0,0-.45-1.77m1,4.32a2.57,2.57,0,0,1-1.93.77,2.57,2.57,0,0,1-1.93-.77,4.59,4.59,0,0,1,0-5.09,2.61,2.61,0,0,1,1.93-.76,2.61,2.61,0,0,1,1.93.76,4.59,4.59,0,0,1,0,5.09"/><path class="fcbb58e0-6db9-4a92-8192-61fe724f8c18" d="M24,193.3a1.22,1.22,0,0,0-1-.43,1.33,1.33,0,0,0-1.28,1.45v3.93h-1.3v-6.46h1.27v.7a2.15,2.15,0,0,1,1.72-.78,2,2,0,0,1,1.54.61Z"/><polygon class="fcbb58e0-6db9-4a92-8192-61fe724f8c18" points="31.37 198.25 30.31 198.25 27.93 191.79 29.32 191.79 30.85 196.34 32.36 191.79 33.74 191.79 31.37 198.25"/><path class="fcbb58e0-6db9-4a92-8192-61fe724f8c18" d="M38,193.24a1.42,1.42,0,0,0-1.91,0,2.51,2.51,0,0,0-.44,1.77,2.54,2.54,0,0,0,.44,1.78,1.39,1.39,0,0,0,1.91,0,2.54,2.54,0,0,0,.45-1.78,2.52,2.52,0,0,0-.45-1.77m1,4.32a2.82,2.82,0,0,1-3.87,0,4.64,4.64,0,0,1,0-5.09,2.84,2.84,0,0,1,3.87,0,4.59,4.59,0,0,1,0,5.09"/><path class="fcbb58e0-6db9-4a92-8192-61fe724f8c18" d="M44.67,193.24a1.31,1.31,0,0,0-1-.37,1.3,1.3,0,0,0-.95.37,2.52,2.52,0,0,0-.45,1.77,2.54,2.54,0,0,0,.45,1.78,1.3,1.3,0,0,0,.95.38,1.32,1.32,0,0,0,1-.38,2.49,2.49,0,0,0,.45-1.78,2.47,2.47,0,0,0-.45-1.77m1,4.32a2.6,2.6,0,0,1-1.94.77,2.56,2.56,0,0,1-1.93-.77,4.59,4.59,0,0,1,0-5.09,2.59,2.59,0,0,1,1.93-.76,2.63,2.63,0,0,1,1.94.76,4.64,4.64,0,0,1,0,5.09"/><path class="fcbb58e0-6db9-4a92-8192-61fe724f8c18" d="M51.61,193.3a1.21,1.21,0,0,0-1-.43,1.33,1.33,0,0,0-1.29,1.45v3.93h-1.3v-6.46h1.27v.7a2.17,2.17,0,0,1,1.72-.78,2,2,0,0,1,1.55.61Z"/><path class="fcbb58e0-6db9-4a92-8192-61fe724f8c18" d="M55.44,198.25a1.68,1.68,0,0,1-1.77-1.8V192.9h-.74v-1h.74v-2H55v2h1.25v1H55v3.49a.67.67,0,0,0,.72.76h.53v1.1Z"/><path class="fcbb58e0-6db9-4a92-8192-61fe724f8c18" d="M60.07,192.87c-1.18,0-1.33,1-1.33,2s.15,2,1.33,2,1.31-1,1.31-2-.14-2-1.31-2M59.91,201a3,3,0,0,1-2.28-.86l.83-.82a1.87,1.87,0,0,0,1.41.57,1.46,1.46,0,0,0,1.51-1.65v-.83a2,2,0,0,1-1.67.74,2.12,2.12,0,0,1-1.54-.57,5.1,5.1,0,0,1,0-5.26,2.15,2.15,0,0,1,1.56-.56,2,2,0,0,1,1.69.76v-.68h1.26v6.43A2.6,2.6,0,0,1,59.91,201"/><path class="fcbb58e0-6db9-4a92-8192-61fe724f8c18" d="M68.3,193.61a1.33,1.33,0,0,0-1.27-.82,1.36,1.36,0,0,0-1.29.82,2.12,2.12,0,0,0-.17.88h2.91a2,2,0,0,0-.18-.88m-2.73,1.79a1.6,1.6,0,0,0,1.65,1.81,1.93,1.93,0,0,0,1.57-.67l.83.78a3,3,0,0,1-2.43,1c-1.62,0-2.91-.85-2.91-3.32,0-2.09,1.09-3.3,2.75-3.3s2.74,1.27,2.74,3.11v.58Z"/><polygon class="fcbb58e0-6db9-4a92-8192-61fe724f8c18" points="70.87 198.25 70.87 197.22 74.09 192.95 71.05 192.95 71.05 191.79 75.7 191.79 75.7 192.82 72.46 197.09 75.7 197.09 75.7 198.25 70.87 198.25"/><path class="fcbb58e0-6db9-4a92-8192-61fe724f8c18" d="M80.9,193.61a1.36,1.36,0,0,0-1.28-.82,1.37,1.37,0,0,0-1.29.82,2.13,2.13,0,0,0-.16.88h2.91a2.29,2.29,0,0,0-.18-.88m-2.73,1.79a1.59,1.59,0,0,0,1.64,1.81,1.93,1.93,0,0,0,1.57-.67l.83.78a3,3,0,0,1-2.43,1c-1.61,0-2.9-.85-2.9-3.32,0-2.09,1.08-3.3,2.74-3.3s2.74,1.27,2.74,3.11v.58Z"/><path class="fcbb58e0-6db9-4a92-8192-61fe724f8c18" d="M85.88,198.25a1.69,1.69,0,0,1-1.78-1.8V192.9h-.74v-1h.74v-2h1.31v2h1.25v1H85.41v3.49a.66.66,0,0,0,.71.76h.54v1.1Z"/><path class="fcbb58e0-6db9-4a92-8192-61fe724f8c18" d="M94.46,193.24a1.42,1.42,0,0,0-1.91,0,2.51,2.51,0,0,0-.44,1.77,2.54,2.54,0,0,0,.44,1.78,1.39,1.39,0,0,0,1.91,0,2.54,2.54,0,0,0,.45-1.78,2.52,2.52,0,0,0-.45-1.77m1,4.32a2.82,2.82,0,0,1-3.87,0,4.64,4.64,0,0,1,0-5.09,2.84,2.84,0,0,1,3.87,0,4.64,4.64,0,0,1,0,5.09"/><path class="fcbb58e0-6db9-4a92-8192-61fe724f8c18" d="M101.78,198.25v-3.94a1.26,1.26,0,0,0-1.31-1.44,1.29,1.29,0,0,0-1.34,1.44v3.94h-1.3v-6.46H99.1v.65a2.45,2.45,0,0,1,3.33-.15,2.41,2.41,0,0,1,.64,1.83v4.13Z"/><path class="fcbb58e0-6db9-4a92-8192-61fe724f8c18" d="M107.29,192.87c-1.17,0-1.35,1-1.35,2.14s.18,2.16,1.35,2.16,1.34-1,1.34-2.16-.16-2.14-1.34-2.14m1.37,5.38v-.69a2,2,0,0,1-1.72.77,2.29,2.29,0,0,1-1.58-.57,3.91,3.91,0,0,1-.72-2.75,3.86,3.86,0,0,1,.72-2.73,2.24,2.24,0,0,1,1.57-.57,2,2,0,0,1,1.7.73v-3.27h1.3v9.08Z"/><path class="fcbb58e0-6db9-4a92-8192-61fe724f8c18" d="M115.55,193.61a1.41,1.41,0,0,0-2.56,0,2.12,2.12,0,0,0-.17.88h2.91a2.12,2.12,0,0,0-.18-.88m-2.73,1.79a1.59,1.59,0,0,0,1.64,1.81,1.92,1.92,0,0,0,1.57-.67l.83.78a3,3,0,0,1-2.42,1c-1.62,0-2.91-.85-2.91-3.32,0-2.09,1.08-3.3,2.74-3.3S117,193,117,194.82v.58Z"/><path class="fcbb58e0-6db9-4a92-8192-61fe724f8c18" d="M122.16,193.3a1.2,1.2,0,0,0-1-.43,1.32,1.32,0,0,0-1.28,1.45v3.93h-1.3v-6.46h1.27v.7a2.15,2.15,0,0,1,1.72-.78,2,2,0,0,1,1.55.61Z"/><polygon class="fcbb58e0-6db9-4a92-8192-61fe724f8c18" points="130.4 198.25 129.29 198.25 127.78 193.74 126.27 198.25 125.15 198.25 123.14 191.79 124.52 191.79 125.77 196.34 127.27 191.79 128.28 191.79 129.78 196.34 131.03 191.79 132.42 191.79 130.4 198.25"/><path class="fcbb58e0-6db9-4a92-8192-61fe724f8c18" d="M133.42,191.79h1.3v6.46h-1.3Zm0-2.66h1.38v1.38h-1.38Z"/><path class="fcbb58e0-6db9-4a92-8192-61fe724f8c18" d="M136.62,189.13H138v1.38h-1.38Zm-.43,11.77h-.81v-1.12H136c.53,0,.71-.25.71-.75v-7.24H138v7.32a1.65,1.65,0,0,1-1.77,1.79"/><path class="fcbb58e0-6db9-4a92-8192-61fe724f8c18" d="M142,198.33a3.6,3.6,0,0,1-2.73-.93l.86-.86a2.49,2.49,0,0,0,1.87.68c.78,0,1.41-.28,1.41-.89,0-.44-.24-.72-.86-.77l-1-.09c-1.21-.1-1.91-.65-1.91-1.78s1.09-2,2.43-2a3.55,3.55,0,0,1,2.4.72l-.81.84a2.44,2.44,0,0,0-1.6-.48c-.78,0-1.18.35-1.18.83s.21.68.9.74l1,.09c1.21.1,1.92.68,1.92,1.83,0,1.35-1.14,2.05-2.68,2.05"/></svg>